<?xml version="1.0" encoding="UTF-8"?>
<svg version="1.1" xmlns="http://www.w3.org/2000/svg" width="330" height="308">
<path d="M0 0 C0.70705078 0.18804199 1.41410156 0.37608398 2.14257812 0.56982422 C20.34998273 5.61094924 36.92188835 14.39737871 51 27 C51.55381348 27.49338867 52.10762695 27.98677734 52.67822266 28.49511719 C74.66363803 48.4355258 89.3344435 77.21009659 91.18457031 106.96875 C92.63294589 140.97952609 83.30563918 171.25633472 60.46386719 196.71191406 C44.50275793 214.06700666 23.85444648 226.92851638 1 233 C-0.13179687 233.31710937 -1.26359375 233.63421875 -2.4296875 233.9609375 C-33.23608626 241.18222237 -67.68851696 235.44376731 -94.7109375 219.1796875 C-100.3859185 215.41883311 -105.72315021 211.30147463 -111 207 C-111.56332031 206.5570459 -112.12664062 206.1140918 -112.70703125 205.65771484 C-114.17541563 204.48378108 -115.59247157 203.24624913 -117 202 C-117 201.34 -117 200.68 -117 200 C-117.55300781 199.79761719 -118.10601562 199.59523437 -118.67578125 199.38671875 C-121.90773769 197.45840861 -123.92690315 194.7536723 -126.1875 191.8125 C-126.66799805 191.18956055 -127.14849609 190.56662109 -127.64355469 189.92480469 C-147.80939036 163.28137738 -155.16661341 133.25546208 -151.68652344 100.00488281 C-147.22631566 67.91648262 -129.44372818 39.36325506 -103.77319336 19.80249023 C-74.41190554 -1.47993888 -35.20937892 -9.47745081 0 0 Z M-104 30 C-104.99644531 30.83273438 -105.99289063 31.66546875 -107.01953125 32.5234375 C-128.97290373 51.45373416 -142.2711989 78.18620769 -145 107 C-147.03624372 136.92392945 -138.14398859 164.86628348 -119 188 C-117.97326172 189.27230469 -117.97326172 189.27230469 -116.92578125 190.5703125 C-97.90821172 212.99768655 -69.05424837 226.520495 -40 229 C-9.06831649 230.76928137 20.01281701 221.7457643 44 202 C45.16208984 201.08347656 45.16208984 201.08347656 46.34765625 200.1484375 C68.5392984 181.75324912 80.94214827 153.28110348 83.82128906 125.08496094 C86.42572191 94.69991104 75.52312632 65.7555257 56.1875 42.75 C47.25045878 32.46075547 36.86982999 24.69394797 25 18 C24.03449219 17.45472656 23.06898438 16.90945312 22.07421875 16.34765625 C-17.72963112 -4.82002034 -69.60660367 1.19025191 -104 30 Z " fill="#FAFAFA" transform="translate(197,38)"/>
<path d="M0 0 C2.63121341 3.46498116 2.22864987 7.19011609 2.1953125 11.390625 C2.1924826 12.09523865 2.18965271 12.79985229 2.18673706 13.52581787 C2.17557801 15.7673876 2.15048193 18.00855186 2.125 20.25 C2.11496464 21.77343171 2.10583976 23.29686971 2.09765625 24.8203125 C2.07565291 28.54700586 2.04115272 32.27346333 2 36 C2.66821777 36.11899658 3.33643555 36.23799316 4.02490234 36.3605957 C13.75329267 38.18124247 20.12390832 41.63937645 27.078125 48.7421875 C28.94798579 50.25864578 28.94798579 50.25864578 31.33862305 49.73071289 C34.06108117 48.98322943 36.08335661 48.00657958 38.50390625 46.56640625 C39.32697266 46.08236328 40.15003906 45.59832031 40.99804688 45.09960938 C42.26745117 44.33874023 42.26745117 44.33874023 43.5625 43.5625 C45.25074665 42.56286343 46.93952973 41.56413215 48.62890625 40.56640625 C49.37213135 40.12240479 50.11535645 39.67840332 50.88110352 39.22094727 C55.56648485 36.52114405 58.43601384 35.58785288 64 36 C66 38 66 38 66.4375 40.8125 C65.87545005 44.90743532 64.12333692 46.53788816 61 49 C57.75217213 51.06058912 54.39375305 52.87995762 51 54.6875 C50.11054688 55.17283203 49.22109375 55.65816406 48.3046875 56.15820312 C44.26314822 58.34485684 40.29425393 60.34927739 36 62 C36.2165625 62.58265625 36.433125 63.1653125 36.65625 63.765625 C40.20822146 74.22420763 39.28989256 83.38811096 37 94 C37.73637695 94.4031543 38.47275391 94.80630859 39.23144531 95.22167969 C41.97783143 96.72955046 44.72071772 98.2435555 47.46142578 99.76171875 C48.64529324 100.41586773 49.83050019 101.06759889 51.01708984 101.71679688 C52.72849295 102.6536859 54.43462082 103.6001906 56.140625 104.546875 C57.16704102 105.11245117 58.19345703 105.67802734 59.25097656 106.26074219 C61.93953881 107.96174729 63.949774 109.57307946 66 112 C66.5625 115.0625 66.5625 115.0625 66 118 C64.0625 120.0625 64.0625 120.0625 61 121 C52.64292327 119.48249667 45.45824764 114.33779718 38.37695312 109.94335938 C37.03600586 109.14188477 37.03600586 109.14188477 35.66796875 108.32421875 C34.86641357 107.83010498 34.0648584 107.33599121 33.23901367 106.8269043 C31.01435244 105.73611333 31.01435244 105.73611333 28.81567383 106.7578125 C26.82689276 108.11843077 25.21291245 109.61836949 23.5 111.3125 C17.49220131 116.70035699 10.1180522 120.18514107 2 120 C2.01571045 120.94319092 2.0314209 121.88638184 2.04760742 122.8581543 C2.09886007 126.37123148 2.13640991 129.88390898 2.16479492 133.3972168 C2.17984353 134.91518438 2.20028738 136.43310876 2.22631836 137.95092773 C2.26287653 140.13796677 2.27976523 142.32442896 2.29296875 144.51171875 C2.3086792 145.82615967 2.32438965 147.14060059 2.34057617 148.49487305 C1.98023057 152.20346221 1.24161898 154.06354417 -1 157 C-2.875 158 -2.875 158 -5 158 C-7.6875 156.8125 -7.6875 156.8125 -10 155 C-11.24385838 151.64812401 -11.10015533 148.35002537 -11.0625 144.80859375 C-11.05476563 143.61685547 -11.04703125 142.42511719 -11.0390625 141.19726562 C-11.02617187 139.95654297 -11.01328125 138.71582031 -11 137.4375 C-10.9745252 134.97790828 -10.95348054 132.51826548 -10.9375 130.05859375 C-10.92589844 128.96861084 -10.91429687 127.87862793 -10.90234375 126.75561523 C-10.87334143 123.90925892 -10.87334143 123.90925892 -12 121 C-14.48736293 119.96028526 -14.48736293 119.96028526 -17.5 119.1875 C-25.81783068 116.59621387 -32.15098246 112.4150515 -38 106 C-45.10532616 107.88605486 -51.12927791 112.01964981 -57.38867188 115.74414062 C-58.29294922 116.27330078 -59.19722656 116.80246094 -60.12890625 117.34765625 C-61.35202515 118.07480835 -61.35202515 118.07480835 -62.59985352 118.81665039 C-65.12379637 120.0610356 -67.20740709 120.68460059 -70 121 C-72.8125 119.9375 -72.8125 119.9375 -75 118 C-75.8125 115.1875 -75.8125 115.1875 -75 112 C-69.05223111 106.20911717 -61.08956005 102.66426117 -53.80664062 98.88085938 C-52.51209961 98.1915332 -52.51209961 98.1915332 -51.19140625 97.48828125 C-50.40967041 97.08134033 -49.62793457 96.67439941 -48.82250977 96.25512695 C-46.68256072 95.05095398 -46.68256072 95.05095398 -46 92 C-46.50332051 90.12093676 -47.00685336 88.24193001 -47.51171875 86.36328125 C-49.21377366 78.1253355 -47.5774433 70.11808375 -46 62 C-46.6297876 61.66790527 -47.2595752 61.33581055 -47.90844727 60.99365234 C-50.79807724 59.46323933 -53.68024762 57.91925935 -56.5625 56.375 C-58.0484668 55.59189453 -58.0484668 55.59189453 -59.56445312 54.79296875 C-65.31000641 51.70067762 -70.40925344 48.67433158 -75 44 C-75.0625 40.1875 -75.0625 40.1875 -74 37 C-71.1312615 35.56563075 -69.20026395 35.7220428 -66 36 C-63.44561055 37.11825494 -61.15382928 38.25080835 -58.75 39.625 C-58.09539795 39.98456787 -57.4407959 40.34413574 -56.76635742 40.71459961 C-52.07612807 43.31273451 -47.51633595 46.09708231 -43.05078125 49.06640625 C-41.05844425 50.17545939 -41.05844425 50.17545939 -38.92578125 49.82421875 C-36.77932996 48.90555501 -35.54288289 47.87597629 -33.875 46.25 C-27.12503299 40.25002932 -19.70325319 37.74397702 -11 36 C-11.01571045 34.68394775 -11.01571045 34.68394775 -11.03173828 33.34130859 C-11.06596215 30.06491432 -11.09096764 26.78871193 -11.10986328 23.51220703 C-11.11987856 22.09811391 -11.13349474 20.68404127 -11.15087891 19.27001953 C-11.17532559 17.22944054 -11.18652784 15.18913697 -11.1953125 13.1484375 C-11.21102295 11.31031494 -11.21102295 11.31031494 -11.22705078 9.43505859 C-10.99537517 5.93003085 -10.37270595 3.22667212 -9 0 C-5.81926598 -1.59036701 -3.37573597 -0.78365299 0 0 Z M-27.55078125 56.25 C-33.6203833 63.57933077 -36.62791028 72.58134586 -36 82 C-35.21700515 85.09417964 -34.16571461 88.03124083 -33 91 C-32.608125 92.03125 -32.21625 93.0625 -31.8125 94.125 C-27.18588134 101.46377442 -19.79797962 106.16905907 -11.625 108.75 C-1.12416141 109.75007987 7.94256192 108.67664557 16.375 101.75 C23.02483418 95.37270001 26.86299827 88.04861202 27.375 78.75 C27.12827838 70.23084752 23.77297411 62.83789993 17.9296875 56.71875 C14.86800811 53.99174812 11.62181923 51.90377677 8 50 C7.21625 49.5875 6.4325 49.175 5.625 48.75 C-6.30207752 45.34226357 -18.13408064 47.99426248 -27.55078125 56.25 Z " fill="#6F767C" transform="translate(172,74)"/>
<path d="M0 0 C2.375 -0.1875 2.375 -0.1875 5 0 C6.96948858 2.95423287 7.26068213 3.68150917 7.45703125 7 C7.51463623 7.79494873 7.57224121 8.58989746 7.6315918 9.40893555 C7.72114136 10.69151245 7.72114136 10.69151245 7.8125 12 C10.19257071 39.44915402 21.08022306 64.14994507 39 85 C39.58394531 85.70511719 40.16789062 86.41023438 40.76953125 87.13671875 C52.64807991 101.21400553 68.26697814 111.59709088 85 119 C86.08925781 119.48210937 87.17851563 119.96421875 88.30078125 120.4609375 C102.39737491 126.25405818 120.70754091 131.39022355 136 130 C137.36161311 129.03886134 138.69855198 128.04115841 140 127 C143.29029921 126.5887126 145.2941394 126.67568567 148.3125 128.0625 C150.84985071 130.97575452 151 133.1862249 151 137 C149.5625 139.9375 149.5625 139.9375 147 142 C144.22994725 142.5947966 141.75987353 142.64684536 139 142 C138.40421143 141.51200928 137.80842285 141.02401855 137.19458008 140.52124023 C134.62029042 138.73679271 132.98532648 138.48596352 129.88671875 138.19140625 C128.89349609 138.08658936 127.90027344 137.98177246 126.87695312 137.8737793 C125.29817383 137.71969604 125.29817383 137.71969604 123.6875 137.5625 C114.10129769 136.48697834 105.19112936 135.02258617 96 132 C95.37254883 131.79536133 94.74509766 131.59072266 94.09863281 131.37988281 C58.2700637 119.47262363 29.93333696 94.80146725 12.75 61.1875 C3.63044711 42.65121477 -0.90378407 22.6383164 -1 2 C-0.67 1.34 -0.34 0.68 0 0 Z " fill="#FAFAFA" transform="translate(27,154)"/>
<path d="M0 0 C1.41302953 2.17226928 2.62923256 4.26870227 3.8125 6.5625 C4.3369873 7.56917725 4.3369873 7.56917725 4.87207031 8.59619141 C21.51089735 41.31921792 24.26818246 79.0666831 13.359375 114.0546875 C9.1780981 126.74437671 3.27396448 138.42811243 -4.375 149.375 C-7.38599964 153.70733152 -8.71276388 157.05583788 -9.52734375 162.21484375 C-10 164 -10 164 -12.25 166.125 C-15.65280341 167.20771018 -17.59497484 167.036312 -21 166 C-22.875 164.9375 -22.875 164.9375 -24 163 C-24.52211795 159.52646531 -24.748226 156.27638553 -22.9375 153.1875 C-21 152 -21 152 -17.6875 150.87109375 C-13.22979146 148.96805494 -11.42016876 145.97183604 -9.0625 141.875 C-8.64137939 141.16778809 -8.22025879 140.46057617 -7.78637695 139.73193359 C9.01546214 110.95866529 17.04850713 76.1115689 8.59082031 43.14599609 C5.359723 31.40990297 1.69469591 20.14646862 -4.51049805 9.61669922 C-6.43510411 6.33004225 -7 4.95174068 -7 1 C-3.375 -1.125 -3.375 -1.125 0 0 Z " fill="#F9F9F9" transform="translate(287,83)"/>
<path d="M0 0 C1 1 1 1 1.125 3.5 C1 6 1 6 0 7 C-1.36934077 7.23717035 -2.74822929 7.41977398 -4.12890625 7.578125 C-31.40972199 10.9324699 -56.7720245 20.41253547 -74.3359375 42.69482422 C-85.73330124 57.71683299 -95.66260791 76.59505416 -95 96 C-93.65873157 99.26750881 -93.65873157 99.26750881 -92 102 C-91.59579102 105.36840819 -91.64052462 107.26107838 -93.125 110.3125 C-95.73656205 112.66290584 -97.51074078 112.93021482 -101 113 C-104.52906067 111.39588152 -105.82772908 110.25840638 -108 107 C-107.66246345 101.71192739 -107.66246345 101.71192739 -105.53515625 99.42578125 C-103.12716429 95.62078633 -103.10295827 91.54036839 -102.625 87.125 C-101.48811291 78.12316659 -99.65940205 70.35389211 -96 62 C-95.56945312 61.00097656 -95.13890625 60.00195312 -94.6953125 58.97265625 C-83.13557283 34.12248142 -62.10739794 14.79552359 -36.37695312 5.39379883 C-29.46858776 3.03533802 -22.50102318 1.32179248 -15.3125 0.0625 C-14.58240723 -0.06624512 -13.85231445 -0.19499023 -13.10009766 -0.32763672 C-8.52292724 -1.03140974 -4.58840135 -0.94830888 0 0 Z " fill="#FAFAFA" transform="translate(166,53)"/>
<path d="M0 0 C3.47900249 -0.08825361 6.95771117 -0.14080635 10.4375 -0.1875 C11.41138672 -0.21263672 12.38527344 -0.23777344 13.38867188 -0.26367188 C19.57902092 -0.3257824 25.43939031 0.01770885 31 3 C33.13749925 6.20624887 33.29574999 7.22458103 33.3125 10.9375 C33.32925781 11.79214844 33.34601563 12.64679688 33.36328125 13.52734375 C32.93504169 16.4421356 31.92290461 17.81326679 30 20 C30.66 20.45375 31.32 20.9075 32 21.375 C34.64732983 24.84962041 34.6227155 27.30445561 34.46484375 31.5859375 C33.76139745 35.2391292 31.9237275 36.84201065 29 39 C26.18175808 40.40912096 23.82748718 40.11183553 20.6796875 40.09765625 C19.42285156 40.09443359 18.16601562 40.09121094 16.87109375 40.08789062 C15.55238281 40.07951172 14.23367187 40.07113281 12.875 40.0625 C11.53515789 40.05748489 10.195314 40.05292201 8.85546875 40.04882812 C5.57026794 40.03701086 2.28515603 40.02053617 -1 40 C-1.02481819 35.26774472 -1.04291583 30.53552779 -1.05493164 25.80322266 C-1.05994375 24.19514302 -1.06675519 22.5870679 -1.07543945 20.97900391 C-1.08764226 18.66047039 -1.09325964 16.34199741 -1.09765625 14.0234375 C-1.10281754 13.31069672 -1.10797882 12.59795593 -1.11329651 11.86361694 C-1.11374755 7.80143571 -0.78775607 3.98511894 0 0 Z M13 11 C13 12.32 13 13.64 13 15 C14.98 15 16.96 15 19 15 C19 13.68 19 12.36 19 11 C17.02 11 15.04 11 13 11 Z M13 25 C13 26.32 13 27.64 13 29 C15.31 29 17.62 29 20 29 C20 28.01 20 27.02 20 26 C18.87465895 24.64381501 18.87465895 24.64381501 15.9375 24.9375 C14.968125 24.958125 13.99875 24.97875 13 25 Z " fill="#70767C" transform="translate(153,132)"/>
<path d="M0 0 C3.65637533 1.38129735 4.94576675 2.62771081 6.8125 6.0625 C6.8125 9.8762751 6.66235071 12.08674548 4.125 15 C1.1066394 16.38681433 -0.89720079 16.4737874 -4.1875 16.0625 C-4.76757812 15.55976563 -5.34765625 15.05703125 -5.9453125 14.5390625 C-11.89440686 10.62136622 -22.8969088 13.76486525 -29.60546875 15.04296875 C-40.59858641 17.31140503 -51.02939407 20.21340677 -61.1875 25.0625 C-61.87150879 25.38734375 -62.55551758 25.7121875 -63.26025391 26.046875 C-76.44965044 32.42298913 -97.34094624 43.36939247 -104.1875 57.0625 C-106.0625 57.875 -106.0625 57.875 -108.1875 58.0625 C-110 56.875 -110 56.875 -111.1875 55.0625 C-109.91110861 46.25360165 -99.64868208 40.11722424 -93.1875 35.0625 C-91.84558594 33.96228516 -91.84558594 33.96228516 -90.4765625 32.83984375 C-69.25618033 15.98836379 -42.00170935 6.37477273 -15.0625 4.625 C-11.54963018 4.3858485 -9.3487036 3.82751118 -6.375 1.9375 C-3.1875 0.0625 -3.1875 0.0625 0 0 Z " fill="#F9F9F9" transform="translate(171.1875,11.9375)"/>
</svg>
